<svg width="50" height="50" viewBox="0 0 50 50" fill="none" xmlns="http://www.w3.org/2000/svg">
<rect width="50" height="50" rx="5" fill="#F1593A"/>
<path d="M20.6974 25.6977C22.6239 25.6977 24.1857 24.1359 24.1857 22.2093C24.1857 20.2827 22.6239 18.7209 20.6974 18.7209C18.7708 18.7209 17.209 20.2827 17.209 22.2093C17.209 24.1359 18.7708 25.6977 20.6974 25.6977Z" stroke="white" stroke-width="2" stroke-linecap="round"/>
<path d="M20.6976 29.186C24.8505 29.186 26.037 32.1525 26.376 33.8475C26.5019 34.4772 25.991 35 25.3487 35H16.0464C15.4042 35 14.8933 34.4772 15.0192 33.8475C15.3582 32.1525 16.5446 29.186 20.6976 29.186Z" stroke="white" stroke-width="2" stroke-linecap="round"/>
<path d="M30.6519 28.4883C32.0647 28.4883 33.21 27.343 33.21 25.9302C33.21 24.5174 32.0647 23.3721 30.6519 23.3721C29.2391 23.3721 28.0938 24.5174 28.0938 25.9302C28.0938 27.343 29.2391 28.4883 30.6519 28.4883Z" stroke="white" stroke-width="2" stroke-linecap="round"/>
<path d="M30.4185 30.814C33.4696 30.814 34.3414 32.9499 34.5904 34.1703C34.6829 34.6236 34.3075 35 33.8357 35H27.0012C26.5294 35 26.154 34.6236 26.2465 34.1703C26.4956 32.9499 27.3673 30.814 30.4185 30.814Z" stroke="white" stroke-width="2" stroke-linecap="round"/>
<path d="M32.3262 15V19.6512" stroke="white" stroke-width="2" stroke-linecap="round"/>
<path d="M34.6512 17.3257H30" stroke="white" stroke-width="2" stroke-linecap="round"/>
</svg>
