<svg width="50" height="50" viewBox="0 0 50 50" fill="none" xmlns="http://www.w3.org/2000/svg">
<rect width="50" height="50" rx="5" fill="#F1593A"/>
<path d="M28.9567 24.4133C29.0802 25.2455 28.938 26.0955 28.5505 26.8423C28.163 27.5891 27.5499 28.1947 26.7984 28.5729C26.0468 28.9512 25.1952 29.0829 24.3645 28.9492C23.5339 28.8155 22.7665 28.4234 22.1716 27.8284C21.5767 27.2335 21.1845 26.4661 21.0508 25.6355C20.9171 24.8048 21.0488 23.9532 21.4271 23.2016C21.8053 22.4501 22.4109 21.837 23.1577 21.4495C23.9045 21.062 24.7545 20.9199 25.5867 21.0433C26.4357 21.1692 27.2216 21.5647 27.8284 22.1716C28.4353 22.7784 28.8309 23.5643 28.9567 24.4133Z" stroke="white" stroke-width="2" stroke-linecap="round" stroke-linejoin="round"/>
<path d="M30 15H20C17.2386 15 15 17.2386 15 20V30C15 32.7614 17.2386 35 20 35H30C32.7614 35 35 32.7614 35 30V20C35 17.2386 32.7614 15 30 15Z" stroke="white" stroke-width="2" stroke-linecap="round" stroke-linejoin="round"/>
</svg>
