<svg width="30" height="30" viewBox="0 0 30 30" fill="none" xmlns="http://www.w3.org/2000/svg">
<rect width="30" height="30" rx="3" fill="#F1593A"/>
<path d="M23.25 13.1667C23.25 19.5834 15 25.0834 15 25.0834C15 25.0834 6.75 19.5834 6.75 13.1667C6.75 10.9787 7.61919 8.88029 9.16637 7.33312C10.7135 5.78594 12.812 4.91675 15 4.91675C17.188 4.91675 19.2865 5.78594 20.8336 7.33312C22.3808 8.88029 23.25 10.9787 23.25 13.1667Z" stroke="#F8F3F1" stroke-linecap="round" stroke-linejoin="round"/>
<path d="M15 15.9167C16.5188 15.9167 17.75 14.6855 17.75 13.1667C17.75 11.648 16.5188 10.4167 15 10.4167C13.4812 10.4167 12.25 11.648 12.25 13.1667C12.25 14.6855 13.4812 15.9167 15 15.9167Z" stroke="#F8F3F1" stroke-linecap="round" stroke-linejoin="round"/>
</svg>
