<svg width="30" height="30" viewBox="0 0 30 30" fill="none" xmlns="http://www.w3.org/2000/svg">
<rect width="30" height="30" rx="3" fill="#F1593A"/>
<path d="M17.7955 9.58341C18.6908 9.7581 19.5137 10.196 20.1587 10.841C20.8038 11.4861 21.2416 12.3089 21.4163 13.2042M17.7955 5.91675C19.6557 6.1234 21.3903 6.95641 22.7145 8.27901C24.0388 9.6016 24.874 11.3352 25.083 13.1951M24.1663 20.5101V23.2601C24.1674 23.5154 24.1151 23.7681 24.0128 24.002C23.9105 24.2359 23.7605 24.4459 23.5724 24.6185C23.3843 24.791 23.1622 24.9224 22.9203 25.0042C22.6785 25.086 22.4222 25.1164 22.168 25.0934C19.3473 24.7869 16.6377 23.823 14.2572 22.2792C12.0423 20.8719 10.1645 18.9941 8.75715 16.7792C7.20797 14.3879 6.24388 11.6652 5.94299 8.83175C5.92008 8.57826 5.95021 8.32278 6.03145 8.08157C6.11269 7.84036 6.24326 7.61871 6.41486 7.43073C6.58645 7.24276 6.79531 7.09256 7.02813 6.98973C7.26095 6.88689 7.51263 6.83365 7.76715 6.83341H10.5172C10.962 6.82904 11.3933 6.98657 11.7306 7.27665C12.0679 7.56674 12.2882 7.96957 12.3505 8.41008C12.4666 9.29014 12.6818 10.1542 12.9922 10.9859C13.1155 11.314 13.1422 11.6706 13.0691 12.0134C12.996 12.3562 12.8261 12.6709 12.5797 12.9201L11.4155 14.0842C12.7204 16.3792 14.6206 18.2793 16.9155 19.5842L18.0797 18.4201C18.3289 18.1736 18.6435 18.0038 18.9863 17.9307C19.3291 17.8576 19.6857 17.8843 20.0138 18.0076C20.8455 18.3179 21.7096 18.5332 22.5897 18.6492C23.0349 18.7121 23.4416 18.9364 23.7323 19.2795C24.023 19.6225 24.1775 20.0605 24.1663 20.5101Z" stroke="#F8F3F1" stroke-linecap="round" stroke-linejoin="round"/>
</svg>
