<svg width="50" height="50" viewBox="0 0 50 50" fill="none" xmlns="http://www.w3.org/2000/svg">
<rect width="50" height="50" rx="5" fill="#F1593A"/>
<path d="M29.439 26.9868C29.1857 26.8668 27.9724 26.2668 27.7457 26.1734C27.5191 26.0801 27.3591 26.0534 27.1857 26.3068C27.0124 26.5601 26.5458 27.1068 26.3991 27.2801C26.2524 27.4534 26.1191 27.4668 25.8658 27.2801C25.1382 26.9881 24.4662 26.5732 23.8791 26.0534C23.3478 25.5531 22.8979 24.9728 22.5458 24.3335C22.3992 24.0935 22.5458 23.9601 22.6525 23.8268C22.7592 23.6935 22.8925 23.5468 23.0258 23.4002C23.1233 23.2733 23.204 23.1344 23.2658 22.9868C23.2989 22.9182 23.3161 22.843 23.3161 22.7668C23.3161 22.6907 23.2989 22.6155 23.2658 22.5468C23.2658 22.4268 22.7058 21.2135 22.4925 20.7202C22.2792 20.2269 22.0925 20.2935 21.9458 20.2935H21.4125C21.1585 20.3035 20.9187 20.4137 20.7459 20.6002C20.4669 20.8664 20.2459 21.1874 20.0968 21.543C19.9476 21.8987 19.8736 22.2813 19.8792 22.6668C19.9474 23.6135 20.2955 24.5184 20.8792 25.2668C21.9503 26.858 23.4158 28.1443 25.1325 29.0001C25.7191 29.2534 26.1724 29.4001 26.5324 29.5201C27.0379 29.6728 27.5723 29.7048 28.0924 29.6134C28.4379 29.5433 28.7652 29.403 29.0542 29.2012C29.3432 28.9993 29.5876 28.7403 29.7724 28.4401C29.9261 28.0693 29.9768 27.6639 29.919 27.2668C29.8524 27.1734 29.6924 27.1068 29.439 26.9868Z" fill="white"/>
<path d="M31.933 17.907C31.011 16.9762 29.9118 16.2394 28.7004 15.7402C27.4891 15.241 26.19 14.9894 24.8798 15.0003C23.1443 15.0094 21.4414 15.4737 19.9414 16.3468C18.4414 17.2199 17.1968 18.4713 16.3318 19.976C15.4667 21.4807 15.0116 23.186 15.0119 24.9216C15.0122 26.6572 15.4678 28.3623 16.3333 29.8668L15 35L20.2532 33.6667C21.7055 34.457 23.3331 34.8696 24.9865 34.8667H24.8798C26.8504 34.8795 28.7801 34.3052 30.4229 33.2169C32.0657 32.1286 33.3471 30.5757 34.1038 28.7562C34.8605 26.9367 35.0581 24.9331 34.6715 23.0008C34.2849 21.0686 33.3316 19.2952 31.933 17.907ZM24.8798 33.16C23.4006 33.1612 21.9489 32.7603 20.6799 32.0001L20.3866 31.8267L17.2666 32.64L18.0933 29.6001L17.9066 29.2934C16.8418 27.5786 16.4435 25.5325 16.7872 23.5434C17.131 21.5543 18.193 19.7606 19.7716 18.5027C21.3502 17.2447 23.3357 16.6099 25.3514 16.7189C27.367 16.8278 29.2725 17.6728 30.7064 19.0936C31.4751 19.8561 32.0844 20.764 32.4987 21.7643C32.913 22.7647 33.1241 23.8374 33.1197 24.9202C33.1162 27.1044 32.2469 29.1982 30.7024 30.7427C29.1579 32.2872 27.0641 33.1565 24.8798 33.16Z" fill="white"/>
</svg>
